<svg preserveAspectRatio="none" width="424" height="453" viewBox="0 0 424 453" fill="none" xmlns="http://www.w3.org/2000/svg">
<path d="M355.709 230.413L355.401 231.881L356.878 232.14L420.999 243.396L421.803 343.732L163.864 298.453L184.388 200.88L265.481 133.505L372.155 152.231L355.709 230.413ZM215.623 204.835L213.04 206.89L216.239 207.452L313.336 224.497L314.814 224.756L315.123 223.288L325.594 173.507L325.903 172.039L324.425 171.78L269.999 162.226L269.316 162.106L268.765 162.544L215.623 204.835ZM230.717 131.113C218.161 108.096 195.813 87.946 184.985 80.1382L184.868 80.0544L184.737 79.9947L127.264 53.8004L125.966 53.2087L125.272 54.484L56.07 181.709L55.3149 183.097L56.7289 183.74L133.944 218.832L53.8544 260.833L30.615 250.332C4.71352 238.541 -5.60374 210.063 6.70682 186.719C6.70858 186.715 6.71033 186.712 6.71209 186.709L107.266 2.81033L208.773 49.3352C208.834 49.3809 208.909 49.4365 208.996 49.5018C213.043 52.5224 245.039 76.403 265.011 109.73L258.699 108.623L257.998 108.499L257.442 108.961L230.717 131.113ZM355.717 405.921C358.173 394.245 349.421 382.645 336.966 380.459L75.7173 334.599C63.2626 332.412 50.4277 340.223 47.9717 351.898C45.5158 363.573 54.2679 375.173 66.7225 377.359L327.972 423.22C340.426 425.406 353.261 417.596 355.717 405.921ZM81.3827 307.666L342.632 353.526C356.712 355.998 369.118 363.482 377.131 374.299C385.141 385.112 388.105 398.362 385.418 411.134C382.732 423.907 374.603 435.21 362.777 442.54C350.945 449.874 336.387 452.625 322.306 450.153L61.0572 404.292C31.9297 399.179 12.7261 373.042 18.2704 346.684C23.8148 320.327 52.2552 302.553 81.3827 307.666Z" stroke="#B28D49" stroke-width="3"/>
</svg>
