<svg preserveAspectRatio="none" width="43" height="32" viewBox="0 0 43 32" fill="none" xmlns="http://www.w3.org/2000/svg">
<path d="M0.134375 4.14667C0.405324 2.96865 1.07139 1.91683 2.02348 1.16349C2.97557 0.410143 4.15725 -8.13185e-05 5.375 1.2091e-08H37.625C38.8427 -8.13185e-05 40.0244 0.410143 40.9765 1.16349C41.9286 1.91683 42.5947 2.96865 42.8656 4.14667L21.5 17.104L0.134375 4.14667ZM0 7.192V26.136L15.5956 16.648L0 7.192ZM18.1702 18.2133L0.513313 28.952C0.949565 29.8648 1.6381 30.6358 2.49879 31.1754C3.35947 31.715 4.35691 32.001 5.375 32H37.625C38.6429 32.0002 39.64 31.7136 40.5002 31.1736C41.3604 30.6335 42.0483 29.8622 42.484 28.9493L24.8271 18.2107L21.5 20.2293L18.1702 18.2107V18.2133ZM27.4044 16.6507L43 26.136V7.192L27.4044 16.648V16.6507Z" fill="#B28D49"/>
</svg>
