<svg preserveAspectRatio="none" width="295" height="326" viewBox="0 0 295 326" fill="none" xmlns="http://www.w3.org/2000/svg">
<path d="M106.131 4.21534L105.382 2.94788L106.165 4.19491C107.804 3.16336 109.664 2.4418 111.634 2.08077C113.605 1.71968 115.64 1.72765 117.614 2.10672C119.588 2.48579 121.454 3.22698 123.099 4.2823C124.743 5.33751 126.128 6.68219 127.173 8.22919L127.185 8.24732L127.198 8.26502C128.265 9.74335 128.995 11.3915 129.353 13.1121C129.711 14.8323 129.692 16.5946 129.299 18.2994C128.907 20.0043 128.148 21.6246 127.062 23.0675C125.976 24.5107 124.582 25.751 122.954 26.7118L122.948 26.715L87.7369 47.6835L86.3129 48.5315L87.2402 49.8333L155.513 145.68L156.301 146.785L157.509 146.065L176.75 134.607L176.753 134.605C181.947 131.5 187.77 129.357 193.89 128.305C200.01 127.253 206.301 127.314 212.402 128.485C218.504 129.657 224.289 131.916 229.427 135.13C234.565 138.344 238.951 142.447 242.337 147.2L242.34 147.203L285.462 207.307C288.866 212.06 291.202 217.373 292.341 222.936C293.48 228.499 293.402 234.206 292.115 239.732L292.114 239.736L280.594 289.802C278.036 300.919 270.738 310.68 260.261 316.919C249.779 323.161 236.979 325.36 224.68 322.998L169.819 312.463L169.815 312.462C163.7 311.302 157.899 309.051 152.746 305.839C147.594 302.629 143.194 298.525 139.796 293.768C139.796 293.767 139.796 293.767 139.795 293.766L96.9348 233.261L96.9295 233.254C93.5254 228.512 91.1858 223.212 90.0376 217.66C88.8894 212.109 88.954 206.411 90.2241 200.891C91.4943 195.372 93.9464 190.132 97.4442 185.473C100.942 180.813 105.42 176.822 110.626 173.734L110.628 173.733L129.869 162.274L131.301 161.422L130.361 160.118L61.6361 64.7911L60.8557 63.7086L59.6594 64.404L24.5817 84.792L24.5718 84.7978L24.5619 84.8037C22.9426 85.7766 21.1202 86.4519 19.1981 86.7845C17.2759 87.1171 15.2964 87.0996 13.3752 86.7306C11.4539 86.3617 9.63419 85.6496 8.02127 84.6382C6.40844 83.6268 5.03787 82.3384 3.98448 80.8522L3.98352 80.8508C1.87327 77.8809 1.15555 74.3023 1.9394 70.8958C2.72302 67.4904 4.95612 64.4794 8.19512 62.537C8.19612 62.5364 8.19711 62.5358 8.1981 62.5352L106.131 4.21534ZM260.791 221.843L260.788 221.838L217.584 161.428C216.316 159.557 214.651 157.948 212.695 156.693C210.733 155.434 208.515 154.554 206.175 154.105C203.835 153.656 201.417 153.645 199.066 154.076C196.722 154.505 194.489 155.366 192.505 156.612L173.28 168.061L171.861 168.905L172.78 170.206L183.927 185.984L183.928 185.986C186.02 188.937 186.739 192.488 185.976 195.874L185.969 195.906L185.963 195.939C185.64 197.742 184.91 199.466 183.815 201.004C182.721 202.541 181.283 203.863 179.586 204.881C176.328 206.807 172.337 207.493 168.489 206.754C164.639 206.015 161.288 203.918 159.155 200.955L159.153 200.952L147.813 185.288L147.024 184.197L145.824 184.912L126.583 196.37L126.579 196.372C122.645 198.73 119.861 202.436 118.881 206.697C117.9 210.959 118.815 215.374 121.377 218.98L121.379 218.984L164.594 279.409L164.598 279.414C165.887 281.2 167.544 282.73 169.471 283.92C171.397 285.11 173.557 285.939 175.828 286.363L230.686 296.898C235.256 297.775 240.042 296.966 243.994 294.612C247.951 292.256 250.752 288.538 251.736 284.261L263.255 234.204C263.255 234.202 263.255 234.201 263.256 234.199C263.756 232.083 263.793 229.901 263.368 227.779C262.943 225.656 262.065 223.64 260.791 221.843Z" stroke="#B28D49" stroke-width="3"/>
</svg>
