<svg width="24" height="36" viewBox="0 0 24 36" fill="none" xmlns="http://www.w3.org/2000/svg">
<path d="M12 6.68014C12.3183 6.68014 12.6235 6.79744 12.8485 7.00624C13.0736 7.21503 13.2 7.49822 13.2 7.7935V12.2469C13.2 12.5422 13.0736 12.8254 12.8485 13.0342C12.6235 13.243 12.3183 13.3603 12 13.3603C11.6817 13.3603 11.3765 13.243 11.1515 13.0342C10.9264 12.8254 10.8 12.5422 10.8 12.2469V7.7935C10.8 7.49822 10.9264 7.21503 11.1515 7.00624C11.3765 6.79744 11.6817 6.68014 12 6.68014ZM21.6 24.4939C21.6 26.8561 20.5886 29.1216 18.7882 30.792C16.9879 32.4623 14.5461 33.4007 12 33.4007C9.45392 33.4007 7.01212 32.4623 5.21177 30.792C3.41143 29.1216 2.4 26.8561 2.4 24.4939V11.1336C2.4 8.77133 3.41143 6.50583 5.21177 4.83547C7.01212 3.16511 9.45392 2.22671 12 2.22671C14.5461 2.22671 16.9879 3.16511 18.7882 4.83547C20.5886 6.50583 21.6 8.77133 21.6 11.1336V24.4939ZM12 0C8.8174 0 5.76516 1.173 3.51472 3.26095C1.26428 5.3489 0 8.18077 0 11.1336V24.4939C0 27.4467 1.26428 30.2785 3.51472 32.3665C5.76516 34.4544 8.8174 35.6274 12 35.6274C15.1826 35.6274 18.2348 34.4544 20.4853 32.3665C22.7357 30.2785 24 27.4467 24 24.4939V11.1336C24 8.18077 22.7357 5.3489 20.4853 3.26095C18.2348 1.173 15.1826 0 12 0Z" fill="white"/>
</svg>
