<svg width="52" height="43" viewBox="0 0 52 43" fill="none" xmlns="http://www.w3.org/2000/svg">
<path d="M-1.14077e-06 23.8409C-1.07237e-06 22.4115 0.666095 21.3973 1.99829 20.7981C3.328 20.1966 4.61191 20.2961 5.85 21.0965L26 34.3894L46.15 21.0965C47.3881 20.2961 48.6732 20.1966 50.0054 20.7981C51.3351 21.3973 52 22.4115 52 23.8409C52 24.4698 51.8304 25.0415 51.4911 25.5561C51.1494 26.0706 50.731 26.4994 50.2357 26.8425L28.1357 41.336C27.8262 41.5647 27.4857 41.7362 27.1143 41.8506C26.7429 41.9649 26.3714 42.0221 26 42.0221C25.6286 42.0221 25.2732 41.9649 24.934 41.8506C24.5923 41.7362 24.2357 41.5647 23.8643 41.336L1.76429 26.8425C1.26905 26.4994 0.850569 26.0706 0.508853 25.5561C0.169616 25.0415 -1.17086e-06 24.4698 -1.14077e-06 23.8409ZM-1.64116e-07 3.42986C-9.57233e-08 2.00052 0.666096 0.986256 1.99829 0.387075C3.328 -0.214392 4.61191 -0.114908 5.85 0.685524L26 13.9784L46.15 0.685525C47.3881 -0.114906 48.6732 -0.21439 50.0054 0.387077C51.3351 0.986258 52 2.00052 52 3.42986C52 4.05877 51.8304 4.63051 51.4911 5.14507C51.1494 5.65964 50.731 6.08844 50.2357 6.43148L28.1357 20.925C27.8262 21.1537 27.4857 21.3252 27.1143 21.4396C26.7429 21.5539 26.3714 21.6111 26 21.6111C25.6286 21.6111 25.2571 21.5539 24.8857 21.4396C24.5143 21.3252 24.1738 21.1537 23.8643 20.925L1.76429 6.43148C1.26905 6.08844 0.85057 5.65963 0.508854 5.14507C0.169616 4.63051 -1.94209e-07 4.05877 -1.64116e-07 3.42986Z" fill="white" fill-opacity="0.8"/>
</svg>
