<svg preserveAspectRatio="none" width="38" height="38" viewBox="0 0 38 38" fill="none" xmlns="http://www.w3.org/2000/svg">
<path d="M8.6791 3.15462C8.5389 2.97427 8.36193 2.82582 8.15994 2.71912C7.95796 2.61242 7.73559 2.54992 7.50759 2.53577C7.27959 2.52161 7.0512 2.55614 6.83757 2.63704C6.62394 2.71794 6.42997 2.84337 6.26855 3.005L3.81287 5.46307C2.66578 6.61254 2.24305 8.23938 2.74416 9.66672C4.82397 15.5746 8.20719 20.9384 12.6428 25.3603C17.0648 29.796 22.4286 33.1792 28.3364 35.2591C29.7637 35.7602 31.3905 35.3375 32.54 34.1904L34.9956 31.7347C35.1573 31.5732 35.2827 31.3793 35.3636 31.1656C35.4445 30.952 35.479 30.7236 35.4649 30.4956C35.4507 30.2676 35.3882 30.0453 35.2815 29.8433C35.1748 29.6413 35.0264 29.4643 34.846 29.3241L29.3671 25.0635C29.1744 24.914 28.9503 24.8103 28.7117 24.7601C28.4731 24.7099 28.2262 24.7146 27.9896 24.7737L22.7885 26.0728C22.0943 26.2463 21.367 26.2371 20.6773 26.0461C19.9877 25.8551 19.3593 25.4887 18.8533 24.9827L13.0205 19.1475C12.5141 18.6417 12.1473 18.0134 11.9558 17.3238C11.7644 16.6341 11.7548 15.9067 11.928 15.2122L13.2295 10.0111C13.2886 9.77453 13.2933 9.52763 13.2431 9.28901C13.1929 9.05039 13.0892 8.82629 12.9397 8.63361L8.6791 3.15462ZM4.47548 1.2143C4.89108 0.798561 5.39037 0.475999 5.94019 0.268027C6.49001 0.0600554 7.07779 -0.0285664 7.66448 0.00804639C8.25118 0.0446592 8.82338 0.205669 9.34308 0.480384C9.86278 0.755099 10.3181 1.13723 10.6788 1.60141L14.9394 7.07803C15.7208 8.08263 15.9962 9.39122 15.6875 10.6262L14.3884 15.8273C14.3213 16.0967 14.3249 16.3789 14.399 16.6465C14.473 16.914 14.615 17.1579 14.8112 17.3544L20.6463 23.1896C20.8431 23.3862 21.0874 23.5284 21.3554 23.6025C21.6234 23.6766 21.9061 23.68 22.1758 23.6124L27.3745 22.3133C27.984 22.1609 28.6201 22.1491 29.2347 22.2787C29.8494 22.4083 30.4266 22.6759 30.9227 23.0614L36.3992 27.322C38.368 28.8539 38.5485 31.7632 36.7863 33.523L34.3307 35.9787C32.5732 37.7362 29.9466 38.508 27.498 37.6459C21.231 35.4408 15.5409 31.853 10.8498 27.1487C6.14574 22.4582 2.55798 16.7689 0.352607 10.5027C-0.507116 8.0565 0.264735 5.42744 2.02218 3.66999L4.47785 1.2143H4.47548ZM26.1253 1.18817C26.1253 0.873235 26.2504 0.571197 26.4731 0.348503C26.6958 0.125809 26.9978 0.00070055 27.3128 0.00070055H36.8125C37.1274 0.00070055 37.4294 0.125809 37.6521 0.348503C37.8748 0.571197 37.9999 0.873235 37.9999 1.18817V10.6879C37.9999 11.0029 37.8748 11.3049 37.6521 11.5276C37.4294 11.7503 37.1274 11.8754 36.8125 11.8754C36.4975 11.8754 36.1955 11.7503 35.9728 11.5276C35.7501 11.3049 35.625 11.0029 35.625 10.6879V4.05473L25.7786 13.9036C25.5556 14.1266 25.2532 14.2519 24.9378 14.2519C24.6225 14.2519 24.3201 14.1266 24.0971 13.9036C23.8741 13.6806 23.7489 13.3782 23.7489 13.0629C23.7489 12.7475 23.8741 12.4451 24.0971 12.2222L33.9459 2.37564H27.3128C26.9978 2.37564 26.6958 2.25053 26.4731 2.02784C26.2504 1.80515 26.1253 1.50311 26.1253 1.18817Z" fill="#B28D49"/>
</svg>
