<svg width="52" height="50" viewBox="0 0 52 50" fill="none" xmlns="http://www.w3.org/2000/svg">
<path d="M3.84091 38.5119L0 35.7143L11.8182 16.6667L18.9091 25L28.3636 9.52381L34.8045 19.2262C33.8985 19.2659 33.0413 19.3746 32.2329 19.5524C31.4261 19.7317 30.6288 19.9802 29.8409 20.2976L28.5409 18.3333L19.5591 33.0357L12.4091 24.6429L3.84091 38.5119ZM48.6318 50L41.2455 42.5595C40.4576 43.1151 39.5807 43.5317 38.6147 43.8095C37.6504 44.0873 36.6561 44.2262 35.6318 44.2262C32.6773 44.2262 30.1663 43.1841 28.0989 41.1C26.0299 39.0175 24.9955 36.4881 24.9955 33.5119C24.9955 30.5357 26.0299 28.0056 28.0989 25.9214C30.1663 23.8389 32.6773 22.7976 35.6318 22.7976C38.5864 22.7976 41.0981 23.8389 43.1671 25.9214C45.2345 28.0056 46.2682 30.5357 46.2682 33.5119C46.2682 34.5437 46.1303 35.5452 45.8545 36.5167C45.5788 37.4897 45.1651 38.3929 44.6136 39.2262L52 46.6071L48.6318 50ZM35.6318 39.4643C37.2864 39.4643 38.6848 38.8889 39.8273 37.7381C40.9697 36.5873 41.5409 35.1786 41.5409 33.5119C41.5409 31.8452 40.9697 30.4365 39.8273 29.2857C38.6848 28.1349 37.2864 27.5595 35.6318 27.5595C33.9773 27.5595 32.5788 28.1349 31.4364 29.2857C30.2939 30.4365 29.7227 31.8452 29.7227 33.5119C29.7227 35.1786 30.2939 36.5873 31.4364 37.7381C32.5788 38.8889 33.9773 39.4643 35.6318 39.4643ZM40.8909 20.4167C40.1424 20.0992 39.364 19.8413 38.5556 19.6429C37.7488 19.4444 36.9121 19.3254 36.0455 19.2857L48.1591 0L52 2.79762L40.8909 20.4167Z" fill="white"/>
</svg>
